<svg xmlns="http://www.w3.org/2000/svg" viewBox="0 0 260.56 260.56">
  <circle cx="130.28" cy="130.28" r="119.41" fill="none" stroke="#fff" stroke-miterlimit="10" stroke-width="2"/>
  <g opacity=".32"><circle cx="130.28" cy="130.28" r="106.49" fill="none" stroke="#fff" stroke-miterlimit="10" stroke-width="2"/></g>
  <g opacity=".32"><circle cx="130.28" cy="130.28" r="93.57" fill="none" stroke="#fff" stroke-miterlimit="10" stroke-width="2"/></g>
  <g opacity=".32"><circle cx="130.28" cy="130.28" r="80.65" fill="none" stroke="#fff" stroke-miterlimit="10" stroke-width="2"/></g>
  <g opacity=".32"><circle cx="130.28" cy="130.28" r="67.72" fill="none" stroke="#fff" stroke-miterlimit="10" stroke-width="2"/></g>
  <g opacity=".32"><circle cx="130.28" cy="130.28" r="54.8" fill="none" stroke="#fff" stroke-miterlimit="10" stroke-width="2"/></g>
  <g opacity=".32"><circle cx="130.28" cy="130.28" r="41.88" fill="none" stroke="#fff" stroke-miterlimit="10" stroke-width="2"/></g>
  <circle cx="130.28" cy="130.28" r="28.96" fill="#fff"/>
  <circle cx="130.28" cy="130.28" r="26.63" fill="none" stroke="#d9064e" stroke-miterlimit="10" stroke-width="1"/>
  <path fill="none" d="M260.56 130.28A130.28 130.28 0 1 1 130.28 0a130.28 130.28 0 0 1 130.28 130.28ZM130.28 0a130.28 130.28 0 1 0 130.28 130.28A130.28 130.28 0 0 0 130.28 0Zm130.28 130.28A130.28 130.28 0 1 1 130.28 0a130.28 130.28 0 0 1 130.28 130.28ZM130.28 0a130.28 130.28 0 1 0 130.28 130.28A130.28 130.28 0 0 0 130.28 0Z"/>
  <path fill="none" d="M260.56 130.28A130.28 130.28 0 1 1 130.28 0a130.28 130.28 0 0 1 130.28 130.28ZM130.28 0a130.28 130.28 0 1 0 130.28 130.28A130.28 130.28 0 0 0 130.28 0Zm130.28 130.28A130.28 130.28 0 1 1 130.28 0a130.28 130.28 0 0 1 130.28 130.28ZM130.28 0a130.28 130.28 0 1 0 130.28 130.28A130.28 130.28 0 0 0 130.28 0Z"/>
</svg>