<svg xmlns="http://www.w3.org/2000/svg" viewBox="0 0 340 340">
  <path style="fill:#d9064e" d="M0 0h340v340H0z"/>
  <path d="M250 40S90 40 90 170s160 130 160 130v-20s-140 0-139.95-110S250 60 250 60V40Z" style="fill:#fff"/>
  <path d="M230 41.42V160H110V41.44C96.84 40 90 40 90 40v260s4.55.24 20-1.39V180h120v118.61c15.17 1.55 20 1.41 20 1.41V40s-3.64-.28-20 1.42Z" style="fill:#fff"/>
  <path d="M250 170c0-101.27-97.08-123.65-140-128.6h-.18c-4.16-.48-7.8-.79-10.79-1A75 75 0 0 0 90 40v260h.17c.39 0 1.5 0 3.62-.1C118 298.91 250 288.09 250 170ZM110 278.51v-217C148.66 66.23 229.91 86.17 229.95 170S148.68 273.77 110 278.51Z" style="fill:#fff"/>
</svg>