<svg xmlns="http://www.w3.org/2000/svg" viewBox="0 0 160 260.05">
  <path d="M160 0S0 0 0 130s160 130 160 130v-20S20 240 20.05 130 160 20 160 20V0Z"/>
  <path d="M140 1.44V120H20V1.46C6.84 0 0 0 0 0v260s4.55.24 20-1.39V140h120v118.63c15.17 1.55 20 1.41 20 1.41V0s-3.64-.26-20 1.44Z"/>
  <path d="M160 130C160 28.76 62.92 6.38 20 1.43h-.18C15.66.93 12 .62 9 .41A75 75 0 0 0 0 0v260h.17c.39 0 1.5 0 3.62-.1C28 258.93 160 248.12 160 130ZM20 238.54v-217C58.66 26.25 139.91 46.19 139.95 130S58.68 233.8 20 238.54Z"/>
</svg>